<?xml version="1.0" encoding="utf-8"?><svg width="88" height="77" viewBox="0 0 88 77" xmlns="http://www.w3.org/2000/svg" xmlns:xlink="http://www.w3.org/1999/xlink"><svg width="9" height="18" viewBox="0 0 9 18" id="facebook" x="79" xmlns="http://www.w3.org/2000/svg"><defs><filter id="a"><feFlood flood-color="#D22856" flood-opacity="1" result="floodOut"/><feComposite operator="atop" in="floodOut" in2="SourceGraphic" result="compOut"/><feBlend in="compOut" in2="SourceGraphic"/></filter></defs><g filter="url(#a)"><path fill-rule="evenodd" fill="#B8B8B8" d="M5.544 18.517H1.859V9.609H.017V6.538h1.842V4.695c0-2.504 1.04-3.994 3.993-3.994h2.46v3.071H6.775c-1.15 0-1.226.429-1.226 1.23l-.005 1.536H8.33l-.326 3.071h-2.46v8.908z"/></g></svg><svg viewBox="0 0 104.896 85.052" height="63" width="79" id="quotes" xmlns="http://www.w3.org/2000/svg"><defs><clipPath id="a" clipPathUnits="userSpaceOnUse"><path d="M0 63.789h78.672V0H0z"/></clipPath></defs><g clip-path="url(#a)" transform="matrix(1.33333 0 0 -1.33333 0 85.052)"><path d="M34.967 56.726l-4.254 7.063C28.272 62.294 0 51.582 0 24.172 0 16.942.336 0 18.9 0c11.187 0 13.94 10.28 13.94 13.584 0 21.977-21.382 14.178-21.382 14.178 0 18.07 19.805 26.843 23.509 28.964m43.705 0l-4.254 7.063c-2.44-1.495-30.713-12.207-30.713-39.617 0-7.23.337-24.172 18.9-24.172 11.187 0 13.939 10.28 13.939 13.584 0 21.977-21.381 14.178-21.381 14.178.002 18.07 19.806 26.843 23.509 28.964" fill="#efefef"/></g></svg><svg viewBox="0 0 23.333 19.549" height="14" width="18" id="twitter" y="63" xmlns="http://www.w3.org/2000/svg"><defs><clipPath id="a" clipPathUnits="userSpaceOnUse"><path d="M0 14.662h17.5V0H0z"/></clipPath></defs><g clip-path="url(#a)" transform="matrix(1.33333 0 0 -1.33333 0 19.55)"><path d="M11.283 14.51c1.736.485 3.074-.263 3.685-1.151.694.226 1.372.47 2.072.69-.004-.84-.538-1.477-.883-1.726.704-.166 1.343.48 1.343.48-.175-.976-1.035-1.746-1.612-1.977C15.65 4.234 12.618-.13 5.508.003h-.46C4.624.003.757.452 0 1.846c2.341-.192 4.011.412 4.835 1.149-.989.293-2.76.465-3.07 2.88.362-.103.583-.221 1.228-.115C1.757 6.596.385 7.297.461 9.445c.294-.32 1.1-.523 1.381-.461-.725.235-2.03 3.28-.92 4.836 1.872-1.811 3.847-3.521 7.368-3.685.216 2.24 1.171 3.74 2.993 4.375" fill="#d22856"/></g></svg><svg viewBox="0 0 19.518 18.613" height="13" width="15" id="youtube" x="18" y="63" xmlns="http://www.w3.org/2000/svg"><defs><clipPath id="a" clipPathUnits="userSpaceOnUse"><path d="M0 13.96h14.639V0H0z"/></clipPath></defs><g clip-path="url(#a)" transform="matrix(1.33333 0 0 -1.33333 0 18.613)"><path d="M1.775.18C.798-.296 0 .204 0 1.29v11.38c0 1.088.798 1.585 1.775 1.109l12.133-5.932c.974-.478.974-1.258 0-1.736z" fill="#d22856"/></g></svg></svg>